<svg xmlns:xlink="http://www.w3.org/1999/xlink" xmlns="http://www.w3.org/2000/svg" width="186.008" height="190.706" viewBox="0 0 186.008 190.706"><g id="shopping-cart" transform="translate(-0.001)"><path id="Trazado_411" data-name="Trazado 411" d="M207.942,207.941h11.626v11.626H207.942Z" transform="translate(-126.562 -126.562)" fill="#4E4E4E"></path><path id="Trazado_412" data-name="Trazado 412" d="M207.942,0h11.626V69.754H207.942Z" transform="translate(-126.562)" fill="#4E4E4E"></path><path id="path-1_3_" d="M320.309,356.47a23.251,23.251,0,1,0,23.251,23.251A23.274,23.274,0,0,0,320.309,356.47Zm0,34.877a11.626,11.626,0,1,1,11.626-11.626A11.641,11.641,0,0,1,320.309,391.347Z" transform="translate(-176.888 -212.267)" fill="#4E4E4E"></path><path id="path-1_2_" d="M142.075,356.47a23.251,23.251,0,1,0,23.251,23.251A23.274,23.274,0,0,0,142.075,356.47Zm0,34.877A11.626,11.626,0,1,1,153.7,379.721,11.641,11.641,0,0,1,142.075,391.347Z" transform="translate(-70.755 -212.267)" fill="#4E4E4E"></path><path id="Trazado_413" data-name="Trazado 413" d="M184.949,37.341a5.816,5.816,0,0,0-4.751-2.464H127.882V46.5H171.95l-24.915,69.754H51.51L34.815,4.95A5.818,5.818,0,0,0,29.065,0H0V11.626H24.058L40.753,122.932a5.818,5.818,0,0,0,5.75,4.95h104.63a5.8,5.8,0,0,0,5.472-3.86L185.67,42.642a5.806,5.806,0,0,0-.721-5.3Z" transform="translate(0 0)" fill="#4E4E4E"></path></g></svg>