<svg xmlns="http://www.w3.org/2000/svg" xmlns:xlink="http://www.w3.org/1999/xlink" width="43" height="43" viewBox="0 0 43 43" version="1.1" class="svg svg-white"><g id="surface1"><path d="M 1.34375 2.6875 L 4.382812 2.6875 L 14.769531 34.011719 C 14.953125 34.558594 15.464844 34.933594 16.046875 34.9375 L 37.4375 34.9375 C 37.925781 34.949219 38.382812 34.695312 38.632812 34.277344 C 38.878906 33.855469 38.878906 33.332031 38.632812 32.910156 C 38.382812 32.488281 37.925781 32.238281 37.4375 32.25 L 17.011719 32.25 L 16.125 29.5625 L 37.636719 29.5625 C 38.230469 29.5625 38.75 29.175781 38.914062 28.609375 L 42.933594 15.171875 C 43.054688 14.761719 42.976562 14.324219 42.722656 13.980469 C 42.46875 13.640625 42.066406 13.4375 41.644531 13.4375 L 10.777344 13.4375 L 6.933594 1.839844 C 6.574219 0.742188 5.550781 0 4.394531 0 L 1.34375 0 C 0.855469 -0.0117188 0.398438 0.238281 0.148438 0.660156 C -0.0976562 1.082031 -0.0976562 1.605469 0.148438 2.027344 C 0.398438 2.445312 0.855469 2.699219 1.34375 2.6875 Z M 1.34375 2.6875 " style="fill-rule: nonzero; fill-opacity: 1;" fill="#FFFFFF"></path><path d="M 22.738281 40.3125 C 22.738281 41.796875 21.535156 43 20.050781 43 C 18.566406 43 17.363281 41.796875 17.363281 40.3125 C 17.363281 38.828125 18.566406 37.625 20.050781 37.625 C 21.535156 37.625 22.738281 38.828125 22.738281 40.3125 Z M 22.738281 40.3125 " style="fill-rule: nonzero; fill-opacity: 1;" fill="#FFFFFF"></path><path d="M 36.28125 40.3125 C 36.28125 41.796875 35.078125 43 33.59375 43 C 32.109375 43 30.90625 41.796875 30.90625 40.3125 C 30.90625 38.828125 32.109375 37.625 33.59375 37.625 C 35.078125 37.625 36.28125 38.828125 36.28125 40.3125 Z M 36.28125 40.3125 " style="fill-rule: nonzero; fill-opacity: 1;" fill="#FFFFFF"></path></g></svg>