<svg version="1.1" id="Capa_1" xmlns="http://www.w3.org/2000/svg" xmlns:xlink="http://www.w3.org/1999/xlink" x="0px" y="0px" viewBox="0 0 120 18.7" xml:space="preserve" class="svg svg-white" width="154"  height="43" ><style type="text/css">
	.st0{fill:#FFFFFF;}
</style><g><g><path class="st0" d="M32.8,4.3h3.6L35.3,10c0,0.1,0,0.3,0,0.4c0,0.2,0.1,0.4,0.2,0.6c0.2,0.3,0.4,0.4,0.8,0.4
			c0.8,0,1.4-0.7,1.5-1.5l1-5.6h3.6l-1.9,10.1h-3.3l0.2-0.9h-0.2c-0.6,0.7-1.6,1.2-2.8,1.2c-1.1,0-1.9-0.3-2.4-0.9
			c-0.4-0.5-0.6-1-0.6-1.7c0-0.2,0-0.5,0.1-0.8L32.8,4.3z" fill="#FFFFFF"></path><path class="st0" d="M41.6,18.7l2.7-14.4h3.5l-0.2,0.9h0.2c0.5-0.6,1.4-1.2,2.7-1.2c2.2,0,3.6,1.5,3.6,3.8c0,3.6-2.5,6.7-5.6,6.7
			c-1.3,0-2-0.5-2.3-1.2h-0.2l-1,5.3H41.6z M48.3,11.4c0.6,0,1.1-0.2,1.6-0.7c0.4-0.5,0.6-1.1,0.6-1.8c0-1-0.6-1.6-1.5-1.6
			c-0.6,0-1.1,0.2-1.6,0.7c-0.4,0.5-0.6,1.1-0.6,1.8C46.8,10.8,47.4,11.4,48.3,11.4z" fill="#FFFFFF"></path><path class="st0" d="M65.5,8c0-0.4-0.1-0.9-0.2-1.2c-0.5-1.6-1.9-2.7-4.1-2.7c-3.8,0-6.3,2.8-6.3,6.3c0,1.2,0.4,2.2,1.2,3.1
			c0.8,0.8,1.8,1.2,3.1,1.2c1.4,0,2.7-0.3,3.7-0.9c0.9-0.5,1.5-1.3,1.9-2.2h-3.4C61,11.8,60.5,12,59.8,12c-0.5,0-0.9-0.2-1.2-0.5
			c-0.2-0.3-0.4-0.6-0.4-1v-0.2h7.1l0.2-0.9c0.1-0.3,0.1-0.7,0.1-1C65.5,8.2,65.5,8.1,65.5,8z M58.6,8.1c0.3-0.7,1.1-1.4,2.2-1.4
			c1.1,0,1.6,0.6,1.6,1.4H58.6z" fill="#FFFFFF"></path><path class="st0" d="M66.4,14.4l1.9-10.1h3.3l-0.3,1.4h0.2c0.5-0.8,1.6-1.5,2.8-1.5h1l-0.6,3.3h-1.3c-1.3,0-2.4,0.9-2.7,2.5
			l-0.8,4.3H66.4z" fill="#FFFFFF"></path><path class="st0" d="M76.1,18.7l2.1-11.7h-1.6l0.5-2.7h1.6l0.1-0.4c0.2-1.1,0.8-2,1.6-2.7c0.9-0.7,1.9-1,3.1-1h1.8l-0.5,2.9h-1.2
			c-0.7,0-1.2,0.4-1.3,1l0,0.2h2.3L84,7.1h-2.3l-2.1,11.7H76.1z" fill="#FFFFFF"></path><path class="st0" d="M86.4,4.3H90L88.9,10c-0.2,0.8,0.2,1.4,1,1.4c0.8,0,1.4-0.7,1.5-1.5l1-5.6H96l-1.9,10.1h-3.3l0.2-0.9h-0.2
			c-0.6,0.7-1.6,1.2-2.8,1.2c-2.1,0-3.3-1.4-2.9-3.4L86.4,4.3z M88.7,0.6C89.1,0.2,89.5,0,90,0c0.8,0,1.3,0.5,1.3,1.2
			c0,1.1-0.8,1.9-1.9,1.9c-0.8,0-1.3-0.5-1.3-1.2C88.2,1.4,88.4,0.9,88.7,0.6z M94,0c0.8,0,1.3,0.5,1.3,1.2c0,0.5-0.2,0.9-0.6,1.3
			c-0.4,0.4-0.8,0.5-1.3,0.5c-0.8,0-1.3-0.5-1.3-1.2C92.2,0.8,93,0,94,0z" fill="#FFFFFF"></path><path class="st0" d="M102.3,4.1c1.2,0,2.1,0.6,2.4,1.2h0.2l0.9-5.1h3.6l-1.9,10.1c0,0.1,0,0.2,0,0.3c0,0.5,0.2,0.7,0.7,0.7h0.3
			l-0.6,3.1h-1.6c-1.2,0-1.9-0.4-2-1.2l0-0.1h-0.1c-0.7,0.8-1.9,1.5-3.5,1.5c-2.4,0-3.8-1.6-3.8-4C96.8,7,99.4,4,102.3,4.1z
			 M102,11.4c0.6,0,1.1-0.2,1.6-0.7c0.4-0.5,0.6-1.1,0.6-1.8c0-1-0.6-1.6-1.5-1.6c-0.6,0-1.1,0.2-1.6,0.7c-0.4,0.5-0.6,1.1-0.6,1.8
			C100.5,10.8,101.1,11.4,102,11.4z" fill="#FFFFFF"></path><path class="st0" d="M23.7,11.2L23.7,11.2c0,0.3,0.1,0.5,0.3,0.6c0.2,0.2,0.5,0.2,0.9,0.2c0.8,0,1.3-0.3,1.3-0.7
			c0-1.2-4.9-0.3-4.9-3.1c0-1.2,0.5-2.2,1.4-3c0.9-0.8,2.2-1.2,3.6-1.2c1.3,0,2.3,0.3,3,0.9c0.5,0.5,0.8,1.1,0.8,1.9
			c0,0.2,0,0.4,0,0.5h-3V7.4c0-0.2-0.1-0.5-0.3-0.6c-0.2-0.2-0.5-0.2-0.9-0.2c-0.8,0-1.3,0.3-1.3,0.8c0,1.1,5.1,0.4,5.1,3.1
			c0,1.3-0.5,2.3-1.4,3.1c-0.9,0.8-2.2,1.2-3.9,1.2c-1.5,0-2.6-0.3-3.2-0.9c-0.5-0.5-0.7-1.1-0.7-1.8c0-0.2,0-0.5,0.1-0.7H23.7z" fill="#FFFFFF"></path><path class="st0" d="M113.6,11.2L113.6,11.2c0,0.3,0.1,0.5,0.3,0.6c0.2,0.2,0.5,0.2,0.9,0.2c0.8,0,1.3-0.3,1.3-0.7
			c0-1.2-4.9-0.3-4.9-3.1c0-1.2,0.5-2.2,1.4-3c0.9-0.8,2.2-1.2,3.6-1.2c1.3,0,2.3,0.3,3,0.9c0.5,0.5,0.8,1.1,0.8,1.9
			c0,0.2,0,0.4,0,0.5h-3V7.4c0-0.2-0.1-0.5-0.3-0.6c-0.2-0.2-0.5-0.2-0.9-0.2c-0.8,0-1.3,0.3-1.3,0.8c0,1.1,5.1,0.4,5.1,3.1
			c0,1.3-0.5,2.3-1.4,3.1c-0.9,0.8-2.2,1.2-3.9,1.2c-1.5,0-2.6-0.3-3.2-0.9c-0.5-0.5-0.7-1.1-0.7-1.8c0-0.2,0-0.5,0.1-0.7H113.6z" fill="#FFFFFF"></path></g><g><g><path class="st0" d="M7.1,14.3c0.1-0.2,0.3-0.7,0.3-0.7c0.3-0.9,0.9-3.5-0.7-5.4C4.7,5.8,1,4.6,0.4,4.4c-0.1,0-0.3-0.1-0.3-0.1
				c0,0,0,0.2,0,0.3c0,0-0.3,3.4,1.2,6.4c1.4,2.8,4.5,3.2,5,3.3C6.2,14.4,6.8,14.4,7.1,14.3z" fill="#FFFFFF"></path></g><g><path class="st0" d="M11.4,14.4c0.5-0.1,3.6-0.5,5-3.3c1.5-3,1.2-6.4,1.2-6.4c0-0.1,0-0.3,0-0.3c0,0-0.3,0.1-0.3,0.1
				c-0.6,0.2-4.3,1.4-6.3,3.8c-1.6,1.9-1,4.5-0.7,5.4c0,0,0.2,0.5,0.3,0.7C10.8,14.4,11.4,14.4,11.4,14.4z" fill="#FFFFFF"></path></g></g></g></svg>